<?xml version="1.0" encoding="utf-8"?>
<!-- Generator: Adobe Illustrator 23.0.1, SVG Export Plug-In . SVG Version: 6.00 Build 0)  -->
<svg version="1.1" id="Ebene_1" xmlns="http://www.w3.org/2000/svg" xmlns:xlink="http://www.w3.org/1999/xlink" x="0px" y="0px"
	 viewBox="0 0 1000 282" style="enable-background:new 0 0 1000 282;" xml:space="preserve">
<style type="text/css">
	.st0{fill:#0F5440;}
</style>
<g>
	<path class="st0" d="M957.05,267.72c25.93,0,36.93-14.66,36.93-37.21v-41.72c0-18.6-5.36-27.91-19.45-39.74l-18.04-15.79
		c-4.51-4.23-5.64-6.2-5.64-11.84v-35.8c0-3.1,1.13-4.51,3.66-4.51c2.54,0,3.66,1.41,3.66,4.51v44.54h34.39V83.93
		c0-16.91-8.17-29.88-33.83-29.88h-8.17c-25.65,0-35.8,13.25-35.8,32.7v37.21c0,15.79,5.07,27.34,17.19,37.49l18.32,15.79
		c5.36,4.79,6.2,7.61,6.2,14.38v40.87c0,3.95-1.41,5.92-3.95,5.92c-2.54,0-3.66-1.97-3.66-5.64v-52.43h-34.95v54.97
		c0,21.7,11.56,32.42,34.95,32.42H957.05z M865.98,268c25.65,0,37.49-16.35,37.49-34.67V56.03h-36.36V229.1
		c0,3.66-1.41,5.36-3.95,5.36c-2.54,0-3.66-1.69-3.66-5.36V56.03h-36.64v177.3c0,18.6,10.15,34.67,37.49,34.67H865.98z
		 M780.83,265.74h34.67L796.62,56.03h-45.1l-17.48,209.72h30.72l1.97-37.77h12.12L780.83,265.74z M777.17,197.25h-8.46l4.23-79.77
		L777.17,197.25z M647.2,265.74H683v-91.33h7.61v91.33h35.52V56.03h-35.52v81.46H683V56.03h-35.8V265.74z M575.59,56.03v209.72
		h61.17v-32.7h-26.21v-60.6h21.42v-33.26h-21.42V88.16h25.37V56.03H575.59z M520.88,84.78h3.38c3.38,0,4.23,2.26,4.23,6.48V229.1
		c0,4.79-0.85,7.05-4.23,7.05h-3.38V84.78z M485.93,265.74h51.58c15.79,0,27.06-9.58,27.06-31.85V86.19
		c0-22.27-12.12-30.16-27.62-30.16h-51.02V265.74z M395.71,56.03v209.72h29.88l-0.28-125.72l16.63,125.72h32.98V56.03h-29.6
		l0.28,113.6l-13.81-113.6H395.71z M384.69,56.03h-35.8v209.72h35.8V56.03z M277.28,56.03v209.72h61.17v-32.7h-26.21v-60.6h21.42
		v-33.26h-21.42V88.16h25.37V56.03H277.28z M173.25,265.74h29.32V148.48l10.71,117.26h12.68l10.43-117.26v117.26h29.88V56.03h-39.74
		l-6.2,101.76l-6.2-101.76h-40.87V265.74z M101.63,56.03v209.72h61.17v-32.7h-26.21v-60.6h21.42v-33.26h-21.42V88.16h25.37V56.03
		H101.63z M38.75,267.72c12.12,0,19.45-7.61,24.24-15.22c1.13,2.54,2.82,10.15,3.66,13.25h23.96V142.28H49.46v27.34h7.33v62.58
		c0,4.23-1.69,6.48-5.07,6.48c-3.38,0-5.07-2.26-5.07-6.48V89.01c0-3.66,1.41-5.36,3.95-5.36c3.38,0,4.23,1.97,4.23,5.36v45.66
		h34.39V87.6c0-16.91-8.17-33.54-36.64-33.54h-4.79C19.58,54.06,10,70.97,10,90.42v142.63c0,18.6,9.02,34.67,27.91,34.67H38.75z"/>
</g>
<g>
	<g>
		<path class="st0" d="M535.76,18.02v25.53H563v-5.94h-19.35v-4.19h18.56V27.6h-18.56v-3.77h19.01v-5.8H535.76z M516.71,44
			c14.58,0,17.12-7.14,17.12-10.36v-0.38h-8.48c-0.21,0.58-1.03,4.53-9.3,4.53c-7.45,0-9.47-3.98-9.47-7v-0.41
			c0-3.19,1.75-6.62,9.4-6.62c8.1,0,9.13,3.57,9.33,4.26h8.48v-0.38c0-2.99-2.3-10.05-17.09-10.05h-1.41
			c-15.1,0-17.09,8-17.09,12.63v1c0,4.53,2.3,12.8,17.09,12.8H516.71z M492.14,43.55h8.61L487.1,18.02h-10.36l-12.9,25.53h8.13
			l2.3-4.67h15.48L492.14,43.55z M486.79,33.12h-9.68l4.73-9.57L486.79,33.12z M445.61,23.82h11.02c2.57,0,3.71,0.96,3.71,2.71v0.1
			c0,1.75-1.2,2.68-3.71,2.68h-11.02V23.82z M456.76,35.04c9.13,0,11.91-3.81,11.91-8.37v-0.34c0-4.67-2.71-8.3-11.91-8.3h-19.15
			v25.53h8v-8.51H456.76z M420.8,44c12.83,0,14.96-4.32,14.96-8.54v-0.48c0-5.08-3.88-7.41-13.49-7.58l-4.29-0.07
			c-5.22-0.1-5.9-1.1-5.9-2.2c0-1.1,0.45-2.2,6.62-2.2h0.55c6.69,0,7.21,2.09,7.38,3.05h8.3v-0.34c0-3.84-2.75-8.06-14.82-8.06
			h-2.37c-11.63,0-13.9,3.98-13.9,7.79v0.31c0,3.98,2.92,7.21,12.46,7.48l4.39,0.1c5.9,0.17,6.69,1.1,6.69,2.57
			c0,1.37-0.75,2.71-7.48,2.71h-0.48c-6.59,0-7.48-2.5-7.58-4.05h-8.34v0.38c0,3.36,1.54,9.13,14.93,9.13H420.8z M382.51,43.55
			V31.51l13.49,12.04h10.43l-15.37-13.86l14.69-11.67h-10.16l-13.07,10.64V18.02h-8v25.53H382.51z M348.43,34.49h10.43
			c3.95,0,5.32,1.37,5.32,4.5v2.95c0,0.93,0.14,1.3,0.38,1.61h8.13v-0.17c-0.24-0.41-0.48-1.06-0.48-3.12v-3.74
			c0-3.29-2.23-5.11-4.84-5.87c1.68-0.55,4.74-1.92,4.74-5.59v-0.41c0-3.67-2.57-6.62-11.08-6.62h-20.59v25.53h8V34.49z
			 M348.43,23.82h12.11c2.33,0,3.23,1.13,3.23,2.47v0.03c0,1.41-0.93,2.5-3.23,2.5h-12.11V23.82z M330.04,30.93
			c0,2.95-1.75,6.86-10.33,6.86c-8.65,0-10.33-4.01-10.33-6.93v-0.41c0-2.92,1.54-6.69,10.33-6.69c8.65,0,10.33,3.77,10.33,6.69
			V30.93z M318.99,17.58c-16.16,0-17.98,8.06-17.98,12.63v1.03c0,4.5,1.82,12.77,17.98,12.77h1.48c16.09,0,17.95-8.27,17.95-12.77
			v-1.03c0-4.56-1.89-12.63-17.95-12.63H318.99z M272.22,43.55l5.8-17.09l6.14,17.09h8.06l10.33-25.53h-7.86l-6.45,17.05
			l-5.83-17.05h-8.51l-5.7,17.57l-6.59-17.57h-8.72l10.5,25.53H272.22z M215.84,18.02v25.53h27.25v-5.94h-19.35v-4.19h18.56V27.6
			h-18.56v-3.77h19.01v-5.8H215.84z M202.8,43.55l12.35-25.53h-8.3l-8.82,18.77l-9.4-18.77h-9.06l13.28,25.53H202.8z M178.88,18.02
			h-8v25.53h8V18.02z M149.75,43.55h8.06V24.06h11.02v-6.04h-30.06v6.04h10.98V43.55z M135.51,43.55h8.61l-13.66-25.53H120.1
			l-12.9,25.53h8.13l2.3-4.67h15.48L135.51,43.55z M130.16,33.12h-9.68l4.74-9.57L130.16,33.12z M79.99,18.02v25.53h27.25v-5.94
			H87.88v-4.19h18.56V27.6H87.88v-3.77h19.01v-5.8H79.99z M53.91,34.49h10.43c3.95,0,5.32,1.37,5.32,4.5v2.95
			c0,0.93,0.14,1.3,0.38,1.61h8.13v-0.17c-0.24-0.41-0.48-1.06-0.48-3.12v-3.74c0-3.29-2.23-5.11-4.84-5.87
			c1.68-0.55,4.74-1.92,4.74-5.59v-0.41c0-3.67-2.57-6.62-11.08-6.62H45.91v25.53h8V34.49z M53.91,23.82h12.11
			c2.33,0,3.23,1.13,3.23,2.47v0.03c0,1.41-0.93,2.5-3.23,2.5H53.91V23.82z M26.87,44c14.58,0,17.12-7.14,17.12-10.36v-0.38h-8.48
			c-0.21,0.58-1.03,4.53-9.3,4.53c-7.45,0-9.47-3.98-9.47-7v-0.41c0-3.19,1.75-6.62,9.4-6.62c8.1,0,9.13,3.57,9.33,4.26h8.48v-0.38
			c0-2.99-2.3-10.05-17.09-10.05h-1.41c-15.1,0-17.09,8-17.09,12.63v1c0,4.53,2.3,12.8,17.09,12.8H26.87z"/>
	</g>
	<path class="st0" d="M979.04,43.14c12.83,0,14.96-4.32,14.96-8.54v-0.48c0-5.08-3.88-7.41-13.49-7.58l-4.29-0.07
		c-5.22-0.1-5.9-1.1-5.9-2.2s0.45-2.2,6.62-2.2h0.55c6.69,0,7.21,2.09,7.38,3.05h8.3v-0.34c0-3.84-2.75-8.06-14.82-8.06h-2.37
		c-11.63,0-13.9,3.98-13.9,7.79v0.31c0,3.98,2.92,7.21,12.46,7.48l4.39,0.1c5.9,0.17,6.69,1.1,6.69,2.57c0,1.37-0.75,2.71-7.48,2.71
		h-0.48c-6.59,0-7.48-2.5-7.58-4.05h-8.34v0.38c0,3.36,1.54,9.13,14.93,9.13H979.04z M936.97,33.64h10.43c3.95,0,5.32,1.37,5.32,4.5
		v2.95c0,0.93,0.14,1.3,0.38,1.61h8.13v-0.17c-0.24-0.41-0.48-1.06-0.48-3.12v-3.74c0-3.29-2.23-5.11-4.84-5.87
		c1.68-0.55,4.74-1.92,4.74-5.59v-0.41c0-3.67-2.57-6.62-11.08-6.62h-20.59V42.7h8V33.64z M936.97,22.96h12.11
		c2.33,0,3.23,1.13,3.23,2.47v0.03c0,1.41-0.93,2.5-3.23,2.5h-12.11V22.96z M899.26,17.17V42.7h27.25v-5.94h-19.35v-4.19h18.56
		v-5.83h-18.56v-3.77h19.01v-5.8H899.26z M870.43,23.21h8.3c9.2,0,10.26,3.95,10.26,6.55v0.21c0,2.61-1.2,6.59-10.26,6.59h-8.3
		V23.21z M862.44,42.7h16.95c14.93,0,17.98-6.93,17.98-12.42v-1.03c0-5.73-3.23-12.08-18.02-12.08h-16.92V42.7z M826.27,17.17V42.7
		h7.89V25.78l17.33,16.92h7.89V17.17h-7.89v16.06l-16.3-16.06H826.27z M817.11,42.7h8.61l-13.66-25.53H801.7L788.8,42.7h8.13
		l2.3-4.67h15.48L817.11,42.7z M811.75,32.26h-9.68l4.74-9.57L811.75,32.26z M753.76,17.17V42.7h25.74v-6.35h-17.74V17.17H753.76z
		 M727.68,33.64h10.43c3.95,0,5.32,1.37,5.32,4.5v2.95c0,0.93,0.14,1.3,0.38,1.61h8.13v-0.17c-0.24-0.41-0.48-1.06-0.48-3.12v-3.74
		c0-3.29-2.23-5.11-4.84-5.87c1.68-0.55,4.74-1.92,4.74-5.59v-0.41c0-3.67-2.57-6.62-11.08-6.62h-20.59V42.7h8V33.64z M727.68,22.96
		h12.11c2.33,0,3.23,1.13,3.23,2.47v0.03c0,1.41-0.93,2.5-3.23,2.5h-12.11V22.96z M710.53,42.7h8.61l-13.66-25.53h-10.36
		l-12.9,25.53h8.13l2.3-4.67h15.48L710.53,42.7z M705.17,32.26h-9.68l4.74-9.57L705.17,32.26z M659.84,42.7V30.65l13.49,12.04h10.43
		l-15.37-13.86l14.69-11.67h-10.16L659.84,27.8V17.17h-8V42.7H659.84z M620.52,42.7h8v-9.88l13.28-15.65h-9.02l-8.06,9.4l-7.93-9.4
		h-9.92l13.66,15.65V42.7z M598.49,32.13c2.64,0,3.16,1.27,3.16,2.37v0.14c0,1.03-0.51,2.5-3.16,2.5h-13.18v-5.01H598.49z
		 M597.8,22.55c2.23,0,2.78,0.96,2.78,2.02v0.07c0,1.03-0.55,2.06-2.78,2.06h-12.49v-4.15H597.8z M577.32,42.7h22.06
		c8.27,0,10.57-3.33,10.57-7.34v-0.48c0-4.5-3.74-5.97-5.49-6.42c1.24-0.38,4.05-1.65,4.05-4.98V23c0-3.02-2.02-5.83-9.33-5.83
		h-21.86V42.7z"/>
</g>
</svg>
