<?xml version="1.0" encoding="utf-8"?>
<!-- Generator: Adobe Illustrator 21.1.0, SVG Export Plug-In . SVG Version: 6.00 Build 0)  -->
<svg version="1.1" id="Layer_1" xmlns="http://www.w3.org/2000/svg" xmlns:xlink="http://www.w3.org/1999/xlink" x="0px" y="0px"
	 viewBox="0 0 50 50" style="enable-background:new 0 0 50 50;" xml:space="preserve">
<style type="text/css">
	.st0{fill:#EAAFB9;}
</style>
<g>
	<path class="st0" d="M27.3,3.9l-8.8,8.8c2.6-0.7,5.4-0.8,8.1-0.1c0.4,0.1,0.7,0.2,1.1,0.4L32,8.6c2.6-2.6,6.8-2.6,9.4,0
		c2.6,2.6,2.6,6.8,0,9.4l-5.9,5.9L32,27.4c-0.9,0.9-1.9,1.4-3,1.7c-2.2,0.6-4.7,0.1-6.4-1.7c-1.2-1.2-1.8-2.7-1.9-4.2
		c-0.5,0.2-1,0.5-1.4,0.9l-4.1,4.1c0.6,1.4,1.5,2.7,2.7,3.9c1.7,1.7,3.8,2.8,6,3.4c3.4,0.9,7.1,0.4,10.2-1.4c0.9-0.6,1.8-1.2,2.6-2
		l9.4-9.4c5.2-5.2,5.2-13.6,0-18.8C40.9-1.3,32.5-1.3,27.3,3.9z"/>
	<path class="st0" d="M31.4,37.4c-3,0.8-6.1,0.7-9.1-0.3L18,41.4c-2.6,2.6-6.8,2.6-9.4,0C6,38.8,6,34.6,8.6,32l9.4-9.4
		c0.9-0.9,1.9-1.4,3-1.7c2.2-0.6,4.7,0,6.4,1.7c1.2,1.2,1.8,2.7,1.9,4.2c0.5-0.2,1-0.5,1.4-0.9l4.1-4.1c-0.6-1.4-1.5-2.7-2.7-3.9
		c-1.7-1.7-3.8-2.8-6-3.4c-3.4-0.9-7.1-0.4-10.2,1.4c-0.9,0.6-1.8,1.2-2.6,2l-9.4,9.4c-5.2,5.2-5.2,13.6,0,18.8
		c5.2,5.2,13.6,5.2,18.8,0L31.4,37.4z"/>
</g>
</svg>
