<?xml version="1.0" encoding="utf-8"?>
<!-- Generator: Adobe Illustrator 21.1.0, SVG Export Plug-In . SVG Version: 6.00 Build 0)  -->
<svg version="1.1"
	 id="Layer_1" xmlns:cc="http://creativecommons.org/ns#" xmlns:dc="http://purl.org/dc/elements/1.1/" xmlns:inkscape="http://www.inkscape.org/namespaces/inkscape" xmlns:rdf="http://www.w3.org/1999/02/22-rdf-syntax-ns#" xmlns:sodipodi="http://sodipodi.sourceforge.net/DTD/sodipodi-0.dtd" xmlns:svg="http://www.w3.org/2000/svg"
	 xmlns="http://www.w3.org/2000/svg" xmlns:xlink="http://www.w3.org/1999/xlink" x="0px" y="0px" viewBox="0 0 70 72"
	 style="enable-background:new 0 0 70 72;" xml:space="preserve">
<style type="text/css">
	.st0{fill:#EAAFB9;}
</style>
<g transform="translate(0,-952.36218)">
	<path class="st0" d="M46.6,952.5l22,7c0.8,0.3,1.4,1.1,1.4,1.9v61c0,1.2-1.4,2.3-2.6,1.9l-21.4-6.8l-21.4,6.8
		c-0.4,0.1-0.8,0.1-1.2,0l-22-7c-0.8-0.3-1.4-1.1-1.4-1.9v-61c0-1.2,1.4-2.3,2.6-1.9l21.4,6.8l21.4-6.8
		C45.8,952.3,46.3,952.4,46.6,952.5z M48,957.1v56.8l18,5.8v-56.8L48,957.1z M44,957.1l-18,5.8v56.8l18-5.8V957.1z M4,957.1v56.8
		l18,5.8v-56.8L4,957.1z"/>
</g>
</svg>
