<?xml version="1.0" encoding="utf-8"?>
<!-- Generator: Adobe Illustrator 21.1.0, SVG Export Plug-In . SVG Version: 6.00 Build 0)  -->
<svg version="1.1" id="Layer_1" xmlns="http://www.w3.org/2000/svg" xmlns:xlink="http://www.w3.org/1999/xlink" x="0px" y="0px"
	 viewBox="0 0 73 56.1" style="enable-background:new 0 0 73 56.1;" xml:space="preserve">
<style type="text/css">
	.st0{fill:#0F5440;}
</style>
<g>
	<g>
		<g>
			<g>
				<path class="st0" d="M71,56.1H2c-1.1,0-2-0.9-2-2V2c0-1.1,0.9-2,2-2h69c1.1,0,2,0.9,2,2v52.1C73,55.2,72.1,56.1,71,56.1z
					 M4,52.1h65V4H4V52.1z"/>
			</g>
		</g>
		<g>
			<g>
				<path class="st0" d="M36.5,37.1c-0.5,0-1-0.2-1.4-0.6L0.6,3.4C0,2.9-0.2,2,0.1,1.3C0.4,0.5,1.2,0,2,0h69c0.8,0,1.6,0.5,1.9,1.3
					C73.2,2,73,2.9,72.4,3.4L37.9,36.6C37.5,37,37,37.1,36.5,37.1z M7,4l29.5,28.4L66,4H7z"/>
			</g>
		</g>
	</g>
</g>
</svg>
