<?xml version="1.0" encoding="utf-8"?>
<!-- Generator: Adobe Illustrator 21.1.0, SVG Export Plug-In . SVG Version: 6.00 Build 0)  -->
<svg version="1.1" id="Layer_1" xmlns="http://www.w3.org/2000/svg" xmlns:xlink="http://www.w3.org/1999/xlink" x="0px" y="0px"
	 viewBox="0 0 4.1 4.1" style="enable-background:new 0 0 4.1 4.1;" xml:space="preserve">
<style type="text/css">
	.st0{fill:#EAAFB9;}
</style>
<g>
	<path class="st0" d="M0,0.5C0.2,0.3,0.3,0.2,0.5,0C1,0.5,1.5,1,2,1.5C2.5,1,3,0.5,3.5,0C3.7,0.2,3.8,0.3,4,0.5C3.5,1,3,1.5,2.5,2
		C3,2.5,3.5,3,4,3.5C3.9,3.8,3.8,3.9,3.6,4.1c-0.5-0.5-1-1-1.5-1.5c-0.5,0.5-1,1-1.5,1.5C0.3,3.9,0.2,3.8,0,3.6c0.5-0.5,1-1,1.5-1.5
		C1,1.5,0.5,1,0,0.5z"/>
</g>
</svg>
