<?xml version="1.0" encoding="utf-8"?>
<!-- Generator: Adobe Illustrator 21.1.0, SVG Export Plug-In . SVG Version: 6.00 Build 0)  -->
<svg version="1.1" id="Layer_1" xmlns="http://www.w3.org/2000/svg" xmlns:xlink="http://www.w3.org/1999/xlink" x="0px" y="0px"
	 viewBox="0 0 63.3 83.1" style="enable-background:new 0 0 63.3 83.1;" xml:space="preserve">
<style type="text/css">
	.st0{fill:#EAAFB9;}
</style>
<title>dArtboard 13</title>
<g>
	<path class="st0" d="M53.6,23.1c-2.1-1.5-4.4-2.6-6.9-3.3l0.4-5.3c0,0,0-0.1,0-0.1c0-0.1,0-0.1,0-0.2c0,0,0-0.1,0-0.1
		c0-0.1-0.1-0.1-0.1-0.2v-0.1l0,0c-0.1-0.1-0.1-0.1-0.2-0.1c0,0-0.1,0-0.1,0l0,0L33,8.7V3.7c0-0.3-0.2-0.6-0.4-0.8l-4.8-2.8
		c-0.3-0.2-0.6-0.2-0.9,0L22.2,3c-0.3,0.2-0.4,0.5-0.4,0.8v4.9L8.5,13.5H0.9c-0.5,0-0.9,0.4-0.9,0.9c0,0.2,0.1,0.4,0.2,0.5l5.7,8.4
		l2.1,27c0,0,0,0.1,0,0.1L3.5,78c-0.2,2.6,1.7,4.9,4.3,5.1c0.1,0,0.2,0,0.4,0h36.9c2.6,0,4.7-2.1,4.7-4.7c0-0.1,0-0.2,0-0.4
		c0,0,0-0.1,0-0.1l-5.6-27.8L46,28.9c4.8,2,8.5,6.9,8.5,19.1c0,2.4,2,4.4,4.4,4.4s4.4-2,4.4-4.4C63.3,36.2,60,27.8,53.6,23.1z
		 M45.1,81.3H8.2c-1.6,0-2.9-1.3-2.9-2.9c0,0,0-0.1,0-0.1l4.4-27h32.9l5.4,27c0.1,0.8-0.2,1.6-0.8,2.2
		C46.7,80.9,45.9,81.3,45.1,81.3z M42.5,49.3H9.7l-0.4-4.8h33.6L42.5,49.3z M43,42.7H9.3H9.2L7.7,22.9c0-0.1-0.1-0.3-0.1-0.4
		l-4.9-7.1h42.6L43,42.7z M31,4.2v3.7l-3.4-1.3c-0.2-0.1-0.4-0.1-0.6,0l-3.4,1.3V4.2L27.3,2L31,4.2z M27.3,8.5l13.9,5.1H13.6
		L27.3,8.5z M58.9,50.5c-1.4,0-2.5-1.1-2.5-2.5c0,0,0,0,0,0c0-13.9-5-19.1-10.2-21.1l0.4-5.1c7,2.1,14.8,8.2,14.8,26.1
		C61.4,49.3,60.3,50.5,58.9,50.5C58.9,50.5,58.9,50.5,58.9,50.5z"/>
</g>
</svg>
