<?xml version="1.0" encoding="utf-8"?>
<!-- Generator: Adobe Illustrator 21.1.0, SVG Export Plug-In . SVG Version: 6.00 Build 0)  -->
<svg version="1.1" id="Layer_1" xmlns="http://www.w3.org/2000/svg" xmlns:xlink="http://www.w3.org/1999/xlink" x="0px" y="0px"
	 viewBox="0 0 79 80" style="enable-background:new 0 0 79 80;" xml:space="preserve">
<style type="text/css">
	.st0{fill:#EAAFB9;}
</style>
<path class="st0" d="M24.3,48.6c1.6,0,3.1-0.6,4.3-1.8c2.4-2.4,2.4-6.2,0-8.6c-1.1-1.1-2.7-1.8-4.3-1.8s-3.1,0.6-4.3,1.8
	c-2.4,2.4-2.4,6.2,0,8.6C21.1,47.9,22.7,48.6,24.3,48.6z M21.4,39.6c0.8-0.8,1.8-1.2,2.9-1.2s2.1,0.4,2.9,1.2c1.6,1.6,1.6,4.2,0,5.7
	c-0.8,0.8-1.8,1.2-2.9,1.2s-2.1-0.4-2.9-1.2C19.8,43.8,19.8,41.2,21.4,39.6z"/>
<path class="st0" d="M12.3,71.7c1.2,0,2.4-0.4,3.3-1.3c0.9-0.9,1.3-2,1.3-3.3s-0.5-2.4-1.3-3.3c-1.8-1.8-4.7-1.8-6.5,0
	c-0.9,0.9-1.3,2-1.3,3.3s0.5,2.4,1.3,3.3C9.9,71.3,11.1,71.7,12.3,71.7z M10.4,65.3c0.5-0.5,1.2-0.8,1.8-0.8c0.7,0,1.3,0.3,1.8,0.8
	c0.5,0.5,0.8,1.1,0.8,1.8s-0.3,1.3-0.8,1.8c-1,1-2.7,1-3.7,0c-0.5-0.5-0.8-1.1-0.8-1.8S10,65.8,10.4,65.3z"/>
<path class="st0" d="M42.4,58.1c1.2,0,2.4-0.5,3.3-1.3c1.8-1.8,1.8-4.7,0-6.5c-0.9-0.9-2-1.3-3.3-1.3s-2.4,0.5-3.3,1.3
	c-1.8,1.8-1.8,4.7,0,6.5C40,57.6,41.1,58.1,42.4,58.1z M40.5,51.6c0.5-0.5,1.1-0.8,1.8-0.8s1.3,0.3,1.8,0.8c1,1,1,2.7,0,3.7
	c-1,1-2.7,1-3.7,0C39.5,54.3,39.5,52.6,40.5,51.6z"/>
<path class="st0" d="M31.5,34.4c1.4,0,2.8-0.6,3.8-1.6c1-1,1.6-2.4,1.6-3.8s-0.6-2.8-1.6-3.8c-2.1-2.1-5.5-2.1-7.6,0s-2.1,5.5,0,7.6
	C28.7,33.9,30.1,34.4,31.5,34.4z M29.1,26.6c0.7-0.7,1.5-1,2.4-1s1.7,0.3,2.4,1c0.6,0.6,1,1.5,1,2.4s-0.4,1.8-1,2.4
	c-1.3,1.3-3.5,1.3-4.8,0C27.8,30.1,27.8,27.9,29.1,26.6z"/>
<path class="st0" d="M23.3,54.7c-2.1,2.1-2.1,5.5,0,7.6c1.1,1.1,2.4,1.6,3.8,1.6c1.4,0,2.8-0.5,3.8-1.6c1-1,1.6-2.4,1.6-3.8
	S32,55.7,31,54.7C28.9,52.6,25.4,52.6,23.3,54.7z M29.5,60.9c-1.3,1.3-3.5,1.3-4.8,0s-1.3-3.5,0-4.8s3.5-1.3,4.8,0
	c0.6,0.6,1,1.5,1,2.4S30.2,60.2,29.5,60.9z"/>
<path class="st0" d="M49.5,46.8c1.8,0,3.6-0.7,5-2.1c2.7-2.7,2.7-7.2,0-9.9c-2.7-2.7-7.2-2.7-9.9,0c-2.7,2.7-2.7,7.2,0,9.9
	C45.9,46.1,47.7,46.8,49.5,46.8z M46,36.2c1-1,2.3-1.5,3.6-1.5c1.3,0,2.6,0.5,3.6,1.5c2,2,2,5.2,0,7.1c-2,2-5.2,2-7.1,0
	C44,41.4,44,38.2,46,36.2z"/>
<path class="st0" d="M5,80c0.7,0,1.3-0.1,1.9-0.4l71.4-29.5c0.3-0.1,0.6-0.5,0.6-0.8c0-0.6,0.9-14.5-17-32.4C44.1-1.1,30.3,0,29.8,0
	c-0.4,0-0.7,0.3-0.8,0.6L0.4,73.1c-0.8,1.9-0.3,4,1.2,5.4C2.5,79.5,3.7,80,5,80z M30.5,2c2.8,0,14.9,1.1,30.1,16.2
	C75.8,33.4,77,45.7,77,48.5l-9,3.7c-0.4-1.6-1.4-3.1-2.3-4.5c-0.9-1.4-1.7-2.7-2.1-4c-0.3-1.3-0.3-2.8-0.2-4.4
	c0.1-2.4,0.2-4.8-1-6.8c-1.1-2-3.2-3.1-5.3-4.1c-1.4-0.7-2.9-1.5-3.9-2.5c-1-1-1.8-2.5-2.5-3.9c-1.1-2-2.2-4.2-4.1-5.3
	c-2-1.2-4.5-1.1-6.8-1c-1.6,0.1-3.2,0.1-4.4-0.2c-1.3-0.4-2.6-1.2-4-2.1c-1.4-0.9-2.8-1.7-4.3-2.2c0,0-0.1,0-0.1,0L30.5,2z
	 M2.2,73.9l24-60.9c0.1,0,0.2,0,0.3,0.1c1.2,0.4,2.5,1.2,3.8,2c1.5,0.9,3,1.9,4.6,2.3c1.6,0.4,3.3,0.3,5,0.3
	c2.2-0.1,4.2-0.2,5.8,0.7c1.5,0.8,2.4,2.6,3.4,4.5c0.8,1.6,1.7,3.2,2.9,4.4s2.8,2.1,4.4,2.9c1.9,1,3.7,1.9,4.5,3.4
	c0.9,1.5,0.8,3.6,0.7,5.8c-0.1,1.7-0.2,3.5,0.3,5c0.4,1.6,1.4,3.1,2.3,4.6c0.9,1.5,1.8,2.8,2.1,4.2l-60,24.8c-1.4,0.6-2.6,0-3.3-0.6
	S1.7,75.2,2.2,73.9z"/>
</svg>
