<?xml version="1.0" encoding="utf-8"?>
<!-- Generator: Adobe Illustrator 21.1.0, SVG Export Plug-In . SVG Version: 6.00 Build 0)  -->
<svg version="1.1" id="Layer_1" xmlns="http://www.w3.org/2000/svg" xmlns:xlink="http://www.w3.org/1999/xlink" x="0px" y="0px"
	 viewBox="0 0 90.1 45.5" style="enable-background:new 0 0 90.1 45.5;" xml:space="preserve">
<style type="text/css">
	.st0{fill:#EAAFB9;}
</style>
<g>
	<path class="st0" d="M83.2,40.9C83.2,40.9,83.2,40.9,83.2,40.9H7.8c-0.6,0-1-0.4-1-1c0-17.9,15.6-33,35.5-34.5c1-0.1,2-0.1,3.2-0.1
		c1.2,0,2.3,0,3.3,0.1c19.8,1.5,35.3,16.5,35.5,34.3c0,0.1,0,0.1,0,0.2C84.2,40.5,83.8,40.9,83.2,40.9z M8.8,38.9h73.4
		C81.6,22.5,67.1,8.8,48.6,7.4c-0.9-0.1-1.9-0.1-3.1-0.1c-1.2,0-2.2,0-3.1,0.1C23.9,8.8,9.4,22.5,8.8,38.9z"/>
</g>
<g>
	<path class="st0" d="M49.4,7.5l-0.9-0.1c-0.9-0.1-1.9-0.1-3.1-0.1c-1.2,0-2.2,0-3.1,0.1l-0.9,0.1l-0.2-0.8
		c-0.1-0.4-0.2-0.9-0.2-1.4c0-2.9,1.9-5.3,4.3-5.3c2.4,0,4.3,2.4,4.3,5.3c0,0.5,0,1-0.2,1.4L49.4,7.5z M45.5,2
		c-1.2,0-2.3,1.5-2.3,3.3c0,0,0,0.1,0,0.1c1.4-0.1,3.2-0.1,4.6,0c0,0,0-0.1,0-0.1C47.8,3.5,46.7,2,45.5,2z"/>
</g>
<g>
	<path class="st0" d="M11.3,34.9c-0.1,0-0.2,0-0.3,0c-0.5-0.2-0.8-0.7-0.6-1.3c0.2-0.7,5.5-16.8,21-22.2c0.5-0.2,1.1,0.1,1.3,0.6
		c0.2,0.5-0.1,1.1-0.6,1.3c-14.6,5.1-19.7,20.8-19.8,21C12.1,34.6,11.7,34.9,11.3,34.9z"/>
</g>
<g>
	<path class="st0" d="M90.1,45.5H0v-6.6h90.1C90.1,38.9,90.1,45.5,90.1,45.5z M2,43.5h86.1v-2.6H2V43.5z"/>
</g>
</svg>
