<?xml version="1.0" encoding="utf-8"?>
<!-- Generator: Adobe Illustrator 21.1.0, SVG Export Plug-In . SVG Version: 6.00 Build 0)  -->
<svg version="1.1"
	 id="Layer_1" xmlns:cc="http://creativecommons.org/ns#" xmlns:dc="http://purl.org/dc/elements/1.1/" xmlns:inkscape="http://www.inkscape.org/namespaces/inkscape" xmlns:rdf="http://www.w3.org/1999/02/22-rdf-syntax-ns#" xmlns:sodipodi="http://sodipodi.sourceforge.net/DTD/sodipodi-0.dtd" xmlns:svg="http://www.w3.org/2000/svg"
	 xmlns="http://www.w3.org/2000/svg" xmlns:xlink="http://www.w3.org/1999/xlink" x="0px" y="0px" viewBox="0 0 62 86"
	 style="enable-background:new 0 0 62 86;" xml:space="preserve">
<style type="text/css">
	.st0{fill:#EAAFB9;}
</style>
<g transform="translate(0,-952.36218)">
	<path class="st0" d="M31,952.4c-7.7,0-14,6.3-14,14v10H6c-0.6,0-0.9,0.4-1,0.9l-5,60c-0.1,0.6,0.4,1.1,1,1.1h60
		c0.6,0,1.1-0.5,1-1.1l-5-60c0-0.5-0.5-0.9-1-0.9H45v-10C45,958.6,38.7,952.4,31,952.4z M31,954.4c6.7,0,12,5.3,12,12v10H19v-10
		C19,959.7,24.3,954.4,31,954.4z M6.9,978.4H17v8.1c-2.3,0.5-4,2.5-4,4.9c0,2.7,2.3,5,5,5s5-2.3,5-5c0-2.4-1.7-4.4-4-4.9v-8.1h24
		v8.1c-2.3,0.5-4,2.5-4,4.9c0,2.7,2.3,5,5,5s5-2.3,5-5c0-2.4-1.7-4.4-4-4.9v-8.1h10.1l4.8,58H2.1L6.9,978.4z M18,988.4
		c1.7,0,3,1.3,3,3s-1.3,3-3,3s-3-1.3-3-3C15,989.7,16.3,988.4,18,988.4z M44,988.4c1.7,0,3,1.3,3,3s-1.3,3-3,3c-1.7,0-3-1.3-3-3
		C41,989.7,42.3,988.4,44,988.4z"/>
</g>
</svg>
